<mxfile host="Electron" agent="Mozilla/5.0 (Windows NT 10.0; Win64; x64) AppleWebKit/537.36 (KHTML, like Gecko) draw.io/28.0.6 Chrome/138.0.7204.100 Electron/37.2.3 Safari/537.36" version="28.0.6">
  <diagram name="Page-1" id="sEfVp9f2br1rGwJrzzIL">
    <mxGraphModel dx="1004" dy="1179" grid="1" gridSize="10" guides="1" tooltips="1" connect="1" arrows="1" fold="1" page="0" pageScale="1" pageWidth="850" pageHeight="1100" math="0" shadow="0">
      <root>
        <mxCell id="0" />
        <mxCell id="1" parent="0" />
        <mxCell id="pGg68EezBzFjsAkC1LQp-12" style="edgeStyle=orthogonalEdgeStyle;rounded=0;orthogonalLoop=1;jettySize=auto;html=1;entryX=0.5;entryY=0;entryDx=0;entryDy=0;" parent="1" source="pGg68EezBzFjsAkC1LQp-5" target="pGg68EezBzFjsAkC1LQp-8" edge="1">
          <mxGeometry relative="1" as="geometry" />
        </mxCell>
        <mxCell id="pGg68EezBzFjsAkC1LQp-5" value="A = 3.14 * (R * R)" style="rounded=0;whiteSpace=wrap;html=1;" parent="1" vertex="1">
          <mxGeometry x="185" y="380" width="120" height="60" as="geometry" />
        </mxCell>
        <mxCell id="pGg68EezBzFjsAkC1LQp-11" style="edgeStyle=orthogonalEdgeStyle;rounded=0;orthogonalLoop=1;jettySize=auto;html=1;entryX=0.5;entryY=0;entryDx=0;entryDy=0;" parent="1" source="pGg68EezBzFjsAkC1LQp-6" target="pGg68EezBzFjsAkC1LQp-5" edge="1">
          <mxGeometry relative="1" as="geometry" />
        </mxCell>
        <mxCell id="pGg68EezBzFjsAkC1LQp-6" value="R" style="shape=parallelogram;perimeter=parallelogramPerimeter;whiteSpace=wrap;html=1;fixedSize=1;" parent="1" vertex="1">
          <mxGeometry x="180" y="280" width="130" height="60" as="geometry" />
        </mxCell>
        <mxCell id="pGg68EezBzFjsAkC1LQp-7" value="start" style="ellipse;whiteSpace=wrap;html=1;" parent="1" vertex="1">
          <mxGeometry x="190" y="170" width="120" height="70" as="geometry" />
        </mxCell>
        <mxCell id="pGg68EezBzFjsAkC1LQp-13" style="edgeStyle=orthogonalEdgeStyle;rounded=0;orthogonalLoop=1;jettySize=auto;html=1;entryX=0.5;entryY=0;entryDx=0;entryDy=0;" parent="1" source="pGg68EezBzFjsAkC1LQp-8" target="pGg68EezBzFjsAkC1LQp-9" edge="1">
          <mxGeometry relative="1" as="geometry" />
        </mxCell>
        <mxCell id="pGg68EezBzFjsAkC1LQp-8" value="A" style="shape=parallelogram;perimeter=parallelogramPerimeter;whiteSpace=wrap;html=1;fixedSize=1;" parent="1" vertex="1">
          <mxGeometry x="180" y="480" width="130" height="60" as="geometry" />
        </mxCell>
        <mxCell id="pGg68EezBzFjsAkC1LQp-9" value="end" style="ellipse;whiteSpace=wrap;html=1;" parent="1" vertex="1">
          <mxGeometry x="185" y="580" width="120" height="70" as="geometry" />
        </mxCell>
        <mxCell id="pGg68EezBzFjsAkC1LQp-10" style="edgeStyle=orthogonalEdgeStyle;rounded=0;orthogonalLoop=1;jettySize=auto;html=1;entryX=0.544;entryY=0.012;entryDx=0;entryDy=0;entryPerimeter=0;" parent="1" source="pGg68EezBzFjsAkC1LQp-7" target="pGg68EezBzFjsAkC1LQp-6" edge="1">
          <mxGeometry relative="1" as="geometry" />
        </mxCell>
        <mxCell id="pGg68EezBzFjsAkC1LQp-14" value="start" style="ellipse;whiteSpace=wrap;html=1;" parent="1" vertex="1">
          <mxGeometry x="410" y="170" width="120" height="80" as="geometry" />
        </mxCell>
        <mxCell id="pGg68EezBzFjsAkC1LQp-21" style="edgeStyle=orthogonalEdgeStyle;rounded=0;orthogonalLoop=1;jettySize=auto;html=1;entryX=0.5;entryY=0;entryDx=0;entryDy=0;" parent="1" source="pGg68EezBzFjsAkC1LQp-15" target="pGg68EezBzFjsAkC1LQp-16" edge="1">
          <mxGeometry relative="1" as="geometry" />
        </mxCell>
        <mxCell id="pGg68EezBzFjsAkC1LQp-15" value="b, h" style="shape=parallelogram;perimeter=parallelogramPerimeter;whiteSpace=wrap;html=1;fixedSize=1;" parent="1" vertex="1">
          <mxGeometry x="400" y="280" width="130" height="60" as="geometry" />
        </mxCell>
        <mxCell id="pGg68EezBzFjsAkC1LQp-22" style="edgeStyle=orthogonalEdgeStyle;rounded=0;orthogonalLoop=1;jettySize=auto;html=1;entryX=0.5;entryY=0;entryDx=0;entryDy=0;" parent="1" source="pGg68EezBzFjsAkC1LQp-16" target="pGg68EezBzFjsAkC1LQp-18" edge="1">
          <mxGeometry relative="1" as="geometry" />
        </mxCell>
        <mxCell id="pGg68EezBzFjsAkC1LQp-16" value="A = b * h" style="rounded=0;whiteSpace=wrap;html=1;" parent="1" vertex="1">
          <mxGeometry x="405" y="380" width="120" height="60" as="geometry" />
        </mxCell>
        <mxCell id="pGg68EezBzFjsAkC1LQp-23" style="edgeStyle=orthogonalEdgeStyle;rounded=0;orthogonalLoop=1;jettySize=auto;html=1;entryX=0.5;entryY=0;entryDx=0;entryDy=0;" parent="1" source="pGg68EezBzFjsAkC1LQp-18" target="pGg68EezBzFjsAkC1LQp-19" edge="1">
          <mxGeometry relative="1" as="geometry" />
        </mxCell>
        <mxCell id="pGg68EezBzFjsAkC1LQp-18" value="A" style="shape=parallelogram;perimeter=parallelogramPerimeter;whiteSpace=wrap;html=1;fixedSize=1;" parent="1" vertex="1">
          <mxGeometry x="400" y="480" width="130" height="60" as="geometry" />
        </mxCell>
        <mxCell id="pGg68EezBzFjsAkC1LQp-19" value="end" style="ellipse;whiteSpace=wrap;html=1;" parent="1" vertex="1">
          <mxGeometry x="405" y="580" width="120" height="70" as="geometry" />
        </mxCell>
        <mxCell id="pGg68EezBzFjsAkC1LQp-20" style="edgeStyle=orthogonalEdgeStyle;rounded=0;orthogonalLoop=1;jettySize=auto;html=1;entryX=0.54;entryY=-0.035;entryDx=0;entryDy=0;entryPerimeter=0;" parent="1" source="pGg68EezBzFjsAkC1LQp-14" target="pGg68EezBzFjsAkC1LQp-15" edge="1">
          <mxGeometry relative="1" as="geometry" />
        </mxCell>
        <mxCell id="pGg68EezBzFjsAkC1LQp-27" style="edgeStyle=orthogonalEdgeStyle;rounded=0;orthogonalLoop=1;jettySize=auto;html=1;entryX=0.5;entryY=0;entryDx=0;entryDy=0;" parent="1" source="pGg68EezBzFjsAkC1LQp-24" target="pGg68EezBzFjsAkC1LQp-25" edge="1">
          <mxGeometry relative="1" as="geometry" />
        </mxCell>
        <mxCell id="pGg68EezBzFjsAkC1LQp-24" value="start" style="ellipse;whiteSpace=wrap;html=1;" parent="1" vertex="1">
          <mxGeometry x="650" y="170" width="120" height="80" as="geometry" />
        </mxCell>
        <mxCell id="pGg68EezBzFjsAkC1LQp-28" style="edgeStyle=orthogonalEdgeStyle;rounded=0;orthogonalLoop=1;jettySize=auto;html=1;entryX=0.5;entryY=0;entryDx=0;entryDy=0;" parent="1" source="pGg68EezBzFjsAkC1LQp-25" target="pGg68EezBzFjsAkC1LQp-26" edge="1">
          <mxGeometry relative="1" as="geometry" />
        </mxCell>
        <mxCell id="pGg68EezBzFjsAkC1LQp-25" value="a, b, h" style="shape=parallelogram;perimeter=parallelogramPerimeter;whiteSpace=wrap;html=1;fixedSize=1;" parent="1" vertex="1">
          <mxGeometry x="645" y="280" width="130" height="60" as="geometry" />
        </mxCell>
        <mxCell id="pGg68EezBzFjsAkC1LQp-30" style="edgeStyle=orthogonalEdgeStyle;rounded=0;orthogonalLoop=1;jettySize=auto;html=1;entryX=0.5;entryY=0;entryDx=0;entryDy=0;" parent="1" source="pGg68EezBzFjsAkC1LQp-26" target="pGg68EezBzFjsAkC1LQp-29" edge="1">
          <mxGeometry relative="1" as="geometry" />
        </mxCell>
        <mxCell id="pGg68EezBzFjsAkC1LQp-26" value="A = (a + b)/2 * h" style="rounded=0;whiteSpace=wrap;html=1;" parent="1" vertex="1">
          <mxGeometry x="650" y="380" width="120" height="60" as="geometry" />
        </mxCell>
        <mxCell id="pGg68EezBzFjsAkC1LQp-32" style="edgeStyle=orthogonalEdgeStyle;rounded=0;orthogonalLoop=1;jettySize=auto;html=1;entryX=0.5;entryY=0;entryDx=0;entryDy=0;" parent="1" source="pGg68EezBzFjsAkC1LQp-29" target="pGg68EezBzFjsAkC1LQp-31" edge="1">
          <mxGeometry relative="1" as="geometry" />
        </mxCell>
        <mxCell id="pGg68EezBzFjsAkC1LQp-29" value="A" style="shape=parallelogram;perimeter=parallelogramPerimeter;whiteSpace=wrap;html=1;fixedSize=1;" parent="1" vertex="1">
          <mxGeometry x="645" y="480" width="130" height="60" as="geometry" />
        </mxCell>
        <mxCell id="pGg68EezBzFjsAkC1LQp-31" value="end" style="ellipse;whiteSpace=wrap;html=1;" parent="1" vertex="1">
          <mxGeometry x="650" y="580" width="120" height="70" as="geometry" />
        </mxCell>
      </root>
    </mxGraphModel>
  </diagram>
</mxfile>
